<?xml version="1.0" encoding="UTF-8"?>
<svg id="Layer_1" xmlns="http://www.w3.org/2000/svg" version="1.1" viewBox="0 0 3469 1701">
  <!-- Generator: Adobe Illustrator 29.8.2, SVG Export Plug-In . SVG Version: 2.1.1 Build 3)  -->
  <defs>
    <style>
      .st0 {
        fill: #ffe609;
      }

      .st1 {
        fill: #ff07ce;
      }

      .st2 {
        fill: #0030ff;
      }
    </style>
  </defs>
  <g>
    <path class="st1" d="M1893.7,221.56c-6.07,0-13.06,0-19.8,2.42-2.6-1.29-5.48-1.97-8.47-1.97h-62.73c5.71-4.12,11.15-8.69,16.15-13.86,3.22-2.94,6.2-5.96,8.9-9l6.93-7.92c9.89-11.27,28.58-34.34,42.68-62.15,3.12-6.16,3.12-13.52,0-19.69-14.62-28.86-34-52.44-44.25-63.93-1.94-2.18-7.55-8.34-8.98-9.82-22.88-23.61-53.56-36.61-86.4-36.61-31.03,0-60.48,11.78-82.92,33.15-1.23,1.17-3.83,3.75-5.58,5.56-2.02,1.96-5.79,5.74-7.8,7.89-9.03,9.68-31.84,35.74-48.46,68.56-3.14,6.17-3.14,13.55-.01,19.71,15.32,30.25,35.73,54.63,46.54,66.49,1.8,1.96,6.93,7.44,8.37,8.88,4.63,4.63,9.64,8.72,14.85,12.48-2.39-.14-4.66-.18-6.56-.18-3.28,0-7.7,0-12.41.77-1.02-.22-2.06-.33-3.12-.33h-66.94c-6.22,0-11.88,3.14-15.29,7.95-4.21,2.83-7.21,7.35-8.01,12.75l-11.69,78.4c-.8,5.35.77,10.76,4.3,14.86,3.53,4.09,8.66,6.44,14.06,6.44h64.86c1.53,0,3.01-.21,4.42-.62,5.44,1.16,10.66,1.16,14.27,1.16,5.96,0,13.45,0,20.61-2.84,7.45,2.84,15.25,2.84,19.74,2.84,3.82,0,8.27,0,12.9-.77.87.16,1.75.24,2.64.24h166.68c.96,0,1.89-.09,2.79-.25,4.73.79,9.08.79,12.03.79,9.01,0,21.35,0,30.93-9.58.8-.81,1.56-1.66,2.27-2.56.89-.7,1.75-1.46,2.56-2.27,7.71-7.73,9.03-16.76,10.1-23.99l6.49-43.04c.67-4.44.95-7.53.95-10.34,0-13.5-6.52-29.59-37.58-29.59Z"/>
    <g>
      <path class="st2" d="M1571.51,248.6l-10.73,72.01h14.99s10.73-72.01,10.73-72.01h-14.99ZM1593.15,248.6l-10.73,72.01h12.95s5.23-35.3,5.23-35.3h.62l1.95,35.3h13.92s10.73-72.01,10.73-72.01h-12.86s-5.58,36.89-5.58,36.89h-.62l-1.6-36.89h-14.01ZM1666.4,262.97c.35-2.48.8-4.79.8-6.83,0-7.54-5.14-7.98-15.88-7.98-14.72,0-17.56,1.51-19.51,14.81l-1.24,8.42c-.18,1.15-.35,2.39-.35,3.72,0,4.08,1.69,7.19,4.97,9.22l9.4,5.67c2.22,1.33,2.39,2.13,2.39,3.46,0,.44-.09.97-.18,1.6l-1.59,10.73c-.37,2.41-.93,3.65-2.9,3.54-1.08-.06-1.89-1.04-1.89-2.12,0-.62,0-1.06.09-1.42l2.13-14.1h-15.07s-2.22,14.54-2.22,14.54c-.53,3.46-.62,5.76-.62,6.92,0,7.36,4.97,7.98,15.88,7.98,7.98,0,12.86-.27,15.7-3.37,2.48-2.66,2.84-6.47,3.63-11.53l2.04-13.48c.18-1.06.35-2.13.35-3.28,0-3.9-1.86-7.01-5.59-9.13l-8.6-5.05c-1.95-1.15-2.48-2.04-2.48-3.28,0-.8.09-1.42.18-1.77l.97-6.83c.36-2.22.98-3.55,2.75-3.55,1.51,0,2.13.62,2.13,2.13,0,0,0,.44-.18,1.42l-1.51,10.29h14.81s1.6-10.73,1.6-10.73ZM1706.92,263.06c.44-3.01.71-5.32.71-7.09,0-7.36-5.14-7.8-15.79-7.8-7.8,0-12.77.09-15.79,3.28-2.48,2.57-3.02,6.39-3.81,11.62l-6.38,43.01c-.53,3.37-.71,6.03-.71,7.89,0,6.39,5.5,7.18,15.78,7.18,7.81,0,12.59-.27,15.52-3.19,2.75-2.75,3.19-6.56,3.99-11.89l6.47-43.01ZM1691.85,263.5l-6.3,42.13c-.35,2.39-.8,3.64-2.84,3.64-1.42,0-1.95-.62-1.95-2.13,0-.44,0-.88.09-1.51l6.29-42.13c.35-2.22.71-3.55,2.66-3.55,1.6,0,2.22.62,2.22,2.13,0,.09,0,.53-.18,1.42ZM1715.35,248.6l-10.73,72.01h13.57s6.21-41.5,6.21-41.5h.53s-.8,41.5-.8,41.5h8.43s11.53-41.5,11.53-41.5h.62s-6.21,41.5-6.21,41.5h13.48s10.82-72.01,10.82-72.01h-18.36s-10.55,36.45-10.55,36.45h-.62s.44-36.45.44-36.45h-18.36ZM1769.44,248.6l-10.73,72.01h12.95s5.23-35.3,5.23-35.3h.62s1.95,35.3,1.95,35.3h13.92s10.73-72.01,10.73-72.01h-12.86s-5.59,36.89-5.59,36.89h-.62s-1.6-36.89-1.6-36.89h-14.01ZM1810.76,248.6l-10.73,72.01h14.99s10.73-72.01,10.73-72.01h-14.99ZM1839.67,248.6l-20.04,72.01h14.1s3.28-14.19,3.28-14.19h6.3s-1.07,14.19-1.07,14.19h14.19s1.42-72.01,1.42-72.01h-18.18ZM1845.7,266.96h.62l-1.95,27.76h-4.88s6.21-27.76,6.21-27.76ZM1903.96,263.06c.44-2.93.71-5.32.71-7.09,0-7.36-5.14-7.8-15.79-7.8-7.89,0-12.77.09-15.79,3.28-2.39,2.57-3.02,6.3-3.81,11.62l-6.39,43.01c-.53,3.37-.71,6.03-.71,7.89,0,6.39,5.5,7.18,15.79,7.18,7.8,0,12.59-.27,15.52-3.19,2.66-2.66,3.19-6.47,3.99-11.89l2.48-16.05h-15.08s-2.31,15.61-2.31,15.61c-.35,2.31-.8,3.64-2.84,3.64-1.42,0-1.95-.62-1.95-2.13,0-.35,0-.88.09-1.51l6.3-42.13c.35-2.22.71-3.55,2.66-3.55,1.59,0,2.22.62,2.22,2.13,0,.09-.09.53-.18,1.42l-1.42,9.58h14.99s1.51-10.02,1.51-10.02Z"/>
      <g>
        <path class="st2" d="M1812.02,64.77c-1.8-2.02-7.04-7.78-8.37-9.16-17.91-18.49-42.98-30-70.76-30-26.33,0-50.25,10.34-67.92,27.17-1.57,1.49-5.63,5.56-7.63,7.7-7.99,8.57-29.49,33.01-44.97,63.56,14.46,28.54,34.15,51.72,43.19,61.63,1.65,1.81,6.35,6.84,7.69,8.18,17.83,17.82,42.44,28.85,69.65,28.85,29.34,0,55.67-12.83,73.72-33.18,1-1.13,5.39-6.17,6.86-7.85,10-11.4,26.85-32.42,39.62-57.63-13.42-26.48-31.34-48.34-41.08-59.28ZM1732.73,200.23c-42.01,0-76.06-34.06-76.06-76.07s34.06-76.07,76.06-76.07,76.07,34.06,76.07,76.07-34.06,76.07-76.07,76.07Z"/>
        <path class="st2" d="M1732.73,90.59c-18.51,0-33.57,15.06-33.57,33.57s15.06,33.57,33.57,33.57,33.57-15.06,33.57-33.57-15.06-33.57-33.57-33.57Z"/>
        <path class="st2" d="M1732.73,185.83c-34,0-61.67-27.66-61.67-61.67s27.66-61.67,61.67-61.67,61.67,27.66,61.67,61.67-27.66,61.67-61.67,61.67ZM1686.39,124.39c.04,25.51,20.81,46.26,46.34,46.26s46.28-20.73,46.33-46.24v-.17c0-.05,0-.1,0-.16-.04-25.51-20.81-46.26-46.33-46.26s-46.28,20.73-46.33,46.24v.17c0,.05,0,.1,0,.16Z"/>
      </g>
    </g>
    <g>
      <path class="st0" d="M1576.33,243.79l-10.73,72.01h14.99s10.73-72.01,10.73-72.01h-14.99ZM1597.96,243.79l-10.73,72.01h12.95s5.23-35.3,5.23-35.3h.62l1.95,35.3h13.92s10.73-72.01,10.73-72.01h-12.86s-5.58,36.89-5.58,36.89h-.62l-1.6-36.89h-14.01ZM1671.22,258.16c.35-2.48.8-4.79.8-6.83,0-7.54-5.14-7.98-15.88-7.98-14.72,0-17.56,1.51-19.51,14.81l-1.24,8.42c-.18,1.15-.35,2.39-.35,3.72,0,4.08,1.69,7.19,4.97,9.22l9.4,5.67c2.22,1.33,2.39,2.13,2.39,3.46,0,.44-.09.97-.18,1.6l-1.59,10.73c-.37,2.41-.93,3.65-2.9,3.54-1.08-.06-1.89-1.04-1.89-2.12,0-.62,0-1.06.09-1.42l2.13-14.1h-15.07s-2.22,14.54-2.22,14.54c-.53,3.46-.62,5.76-.62,6.92,0,7.36,4.97,7.98,15.88,7.98,7.98,0,12.86-.27,15.7-3.37,2.48-2.66,2.84-6.47,3.63-11.53l2.04-13.48c.18-1.06.35-2.13.35-3.28,0-3.9-1.86-7.01-5.59-9.13l-8.6-5.05c-1.95-1.15-2.48-2.04-2.48-3.28,0-.8.09-1.42.18-1.77l.97-6.83c.36-2.22.98-3.55,2.75-3.55,1.51,0,2.13.62,2.13,2.13,0,0,0,.44-.18,1.42l-1.51,10.29h14.81s1.6-10.73,1.6-10.73ZM1711.74,258.24c.44-3.01.71-5.32.71-7.09,0-7.36-5.14-7.8-15.79-7.8-7.8,0-12.77.09-15.79,3.28-2.48,2.57-3.02,6.39-3.81,11.62l-6.38,43.01c-.53,3.37-.71,6.03-.71,7.89,0,6.39,5.5,7.18,15.78,7.18,7.81,0,12.59-.27,15.52-3.19,2.75-2.75,3.19-6.56,3.99-11.89l6.47-43.01ZM1696.66,258.69l-6.3,42.13c-.35,2.39-.8,3.64-2.84,3.64-1.42,0-1.95-.62-1.95-2.13,0-.44,0-.88.09-1.51l6.29-42.13c.35-2.22.71-3.55,2.66-3.55,1.6,0,2.22.62,2.22,2.13,0,.09,0,.53-.18,1.42ZM1720.16,243.79l-10.73,72.01h13.57s6.21-41.5,6.21-41.5h.53s-.8,41.5-.8,41.5h8.43s11.53-41.5,11.53-41.5h.62s-6.21,41.5-6.21,41.5h13.48s10.82-72.01,10.82-72.01h-18.36s-10.55,36.45-10.55,36.45h-.62s.44-36.45.44-36.45h-18.36ZM1774.25,243.79l-10.73,72.01h12.95s5.23-35.3,5.23-35.3h.62s1.95,35.3,1.95,35.3h13.92s10.73-72.01,10.73-72.01h-12.86s-5.59,36.89-5.59,36.89h-.62s-1.6-36.89-1.6-36.89h-14.01ZM1815.58,243.79l-10.73,72.01h14.99s10.73-72.01,10.73-72.01h-14.99ZM1844.49,243.79l-20.04,72.01h14.1s3.28-14.19,3.28-14.19h6.3s-1.07,14.19-1.07,14.19h14.19s1.42-72.01,1.42-72.01h-18.18ZM1850.52,262.15h.62s-1.95,27.76-1.95,27.76h-4.88s6.21-27.76,6.21-27.76ZM1908.78,258.24c.44-2.93.71-5.32.71-7.09,0-7.36-5.14-7.8-15.79-7.8-7.89,0-12.77.09-15.79,3.28-2.39,2.57-3.02,6.3-3.81,11.62l-6.39,43.01c-.53,3.37-.71,6.03-.71,7.89,0,6.39,5.5,7.18,15.79,7.18,7.8,0,12.59-.27,15.52-3.19,2.66-2.66,3.19-6.47,3.99-11.89l2.48-16.05h-15.08s-2.31,15.61-2.31,15.61c-.35,2.31-.8,3.64-2.84,3.64-1.42,0-1.95-.62-1.95-2.13,0-.35,0-.88.09-1.51l6.3-42.13c.35-2.22.71-3.55,2.66-3.55,1.59,0,2.22.62,2.22,2.13,0,.09-.09.53-.18,1.42l-1.42,9.58h14.99s1.51-10.02,1.51-10.02Z"/>
      <g>
        <path class="st0" d="M1816.83,59.95c-1.8-2.02-7.04-7.78-8.37-9.16-17.91-18.49-42.98-30-70.76-30-26.33,0-50.25,10.34-67.92,27.17-1.57,1.49-5.63,5.56-7.63,7.7-7.99,8.57-29.49,33.01-44.97,63.56,14.46,28.54,34.15,51.72,43.19,61.63,1.65,1.81,6.35,6.84,7.69,8.18,17.83,17.82,42.44,28.85,69.65,28.85,29.34,0,55.67-12.83,73.72-33.18,1-1.13,5.39-6.17,6.86-7.85,10-11.4,26.85-32.42,39.62-57.63-13.42-26.48-31.34-48.34-41.08-59.28ZM1737.54,195.41c-42.01,0-76.06-34.06-76.06-76.07s34.06-76.07,76.06-76.07,76.07,34.06,76.07,76.07-34.06,76.07-76.07,76.07Z"/>
        <path class="st0" d="M1737.54,85.78c-18.51,0-33.57,15.06-33.57,33.57s15.06,33.57,33.57,33.57,33.57-15.06,33.57-33.57-15.06-33.57-33.57-33.57Z"/>
        <path class="st0" d="M1737.54,181.01c-34,0-61.67-27.66-61.67-61.67s27.66-61.67,61.67-61.67,61.67,27.66,61.67,61.67-27.66,61.67-61.67,61.67ZM1691.21,119.58c.04,25.51,20.81,46.26,46.34,46.26s46.28-20.73,46.33-46.24v-.17c0-.05,0-.1,0-.16-.04-25.51-20.81-46.26-46.33-46.26s-46.28,20.73-46.33,46.24v.17c0,.05,0,.1,0,.16Z"/>
      </g>
    </g>
  </g>
  <g>
    <path d="M2417.92,626.84c1.2,27.65,12.04,52.58,10.07,81.35-2.52,40.58-30.59,72.06-52.43,104.12-11.89,17.35-23.46,36.36-23.12,58.16,1.28,31.25,21.14,57.65,47.78,72.72,37.17,21.22,84.87,24.47,126.46,18.16,53.2-8.13,108.18-33.61,143.3-75.35,31.75-38.37,50.61-88.24,57.23-137.3,7.47-54.75-1.12-112.21-31.44-159.1-28.19-44.06-73.22-72.56-123.25-85.8-74.89-21.57-156.82,46.46-154.61,123.05ZM2541.98,858.81c2.01-14.71,15.84-26.41,24.74-37.52,16.8-19.52,25.17-45.38,22.46-71.05-3.14-32.06-25.71-60.13-28.73-92.31-1.7-18.35,6.04-39.38,23.93-47.12,18.51-7.4,39.92.23,54.67,12.31,18.7,14.56,27.3,41.28,32.56,63.46,14.48,64.93-12.58,134.59-65.05,174.71-15.37,11.19-36.24,18.43-54.94,12.04-6.27-2.17-10.92-7.59-9.64-14.52Z"/>
    <path d="M2427.79,1174.85c-7.36-9.22-20.75-7.82-30.82-4.72-19.21,6.2-29.62,21.76-39.69,38.06-10.69,18.04-24.35,35.47-42.79,46.04-9.25,5.07-20.25,7.98-29.97,2.4-9.41-5.61-13.13-16.8-15.76-26.83-10.88-42.59-5.73-88.01,2.48-130.68,8.25-38.91,25.28-79.88,15.18-120.07-8.79-40.19-54.32-63-92.66-59.09-16.8,2.05-30.7,13.94-27.49,32.14,6.74,26.48,31.25,49.06,36.78,76.86,8.98,39.73,8.48,83.71,8.94,124.37.5,42.44-1.05,88.71-16.53,128.74-6.08,16.8-18.93,31.79-22.42,49.02-2.44,12.43,3.87,23.5,13.51,30.9,17.15,12.97,41.04,16.92,61.84,12.2,8.91-1.78,17.77-5.11,26.79-5.96,14.87.85,29.81,10.88,43.64,16.26,22.73,9.99,51.38,11.69,72.91-2.13,11.07-7.16,19.75-17.54,18.55-31.52-2.21-17.39-11.46-32.22-11.5-50.37-.04-32.6,14.98-60.13,27.65-89.02,4.68-11.23,9.02-25.67,1.36-36.59Z"/>
    <path d="M2687.14,1023.99c-30.05-36.63-79.49-50.96-125.45-45.81-23.46,2.94-47.66,12.35-60.05,33.76-10.61,18.08-9.14,39.96-7.78,60.09,2.13,24.55,2.83,48.48-3.29,72.6-12.85,53.36-46.42,97.5-60.52,151.94-7.74,27.92-9.64,62.92,3.76,89.37,19.13,33.38,67.3,49.14,101.91,31.63,26.37-13.2,40.66-46.27,29.31-74.03-8.83-20.17-36.28-25.86-47.43-45.38-9.8-17.04-8.67-40.81-5.27-59.51,4.38-21.41,14.13-46.23,32.53-59.36,15.91-11.54,35.31-17.23,54.79-12.35,11.46,3.06,23.35,9.68,26.52,22.03,2.79,12.58-2.56,25.52-6.7,37.25-19.01,50.65-28.42,105.44-27.34,159.49.46,26.29,8.21,51.46,27.07,70.35,16.84,17.54,42.86,20.68,65.75,16.84,23.04-4.53,45.96-18.82,52.39-42.63,6.23-24.66-5.5-45.84-19.55-65.09-17.08-22.69-33.34-42.48-35.12-72.25-4.45-56.49,26.52-118.72,31.71-174.43,3.29-33.84-5.3-68.15-27.22-94.52ZM2625.07,1112.47c-9.72,19.98-45.11,18.62-53.47-1.55-1.55-11.54,1.94-23.5.89-35.2-.85-11.58-6.89-23.12-6.43-34.58,1.59-10.92,12.62-16.34,22.57-17.31,18.2-1.28,34.81,11.46,39.38,28.89,5.38,18.7,6.43,42.13-2.94,59.75Z"/>
    <path d="M3050.57,1157.97c14.95-22.23,38.06-33.03,48.17-56.73,7.94-18.9,7.98-44.33-6.54-60.17-12.12-13.05-30.09-14.71-46.81-12.2-28.11,4.57-57.07,18.62-74.81,41.39-13.75,17.42-18.28,38.1-19.36,59.86-1.47,43.87,5.42,87.89,3.72,131.73-.89,9.33-1.55,25.4-11.35,30.12-14.83,3.02-23.7-12-26.95-24.2-10.76-44.14-22.84-87.89-34.42-131.84-8.05-30.55-14.87-62.61-30.74-90.26-9.14-15.88-22.11-30.82-39.77-37.21-14.91-5.3-31.71-4.49-44.26,5.89-12.43,10.34-18.62,27.61-21.49,43.06-9.76,50.37,13.2,107.22,1.74,158.4-4.49,20.83-16.11,36.24-26.76,54.05-11.38,18.2-14.95,39.77-6.54,59.94,12.27,29.54,46.23,56.26,79.65,47.55,26.45-5.96,44.88-30.09,41.7-57.42-1.28-20.02-16.65-27.1-29.12-39.88-14.79-14.06-14.67-36.75-9.99-55.18,3.52-12.74,9.45-28.58,20.56-36.55,10.18-6.7,21.76-2.9,26.68,8.02,12.31,27.41,19.09,58.43,20.29,88.4,1.74,54.21-26.64,96.88-25.83,151.36.77,42.51,37.6,80.15,79.69,83.4,22.19.85,39.49-17.23,46.04-37.06,6.58-18.78.15-35.31-1.66-54.17-5.89-45.88,1.78-92.23,17-135.64,16.77-47.66,42.63-93.08,71.17-134.67Z"/>
    <path d="M3356.92,1253.61c-12.93-54.25-47.28-101.87-95.75-129.71-25.59-14.67-53.24-27.1-83.52-22.77-58.24,8.25-107.37,59.32-113.61,117.83-3.06,26.45,3.64,51.73,2.48,77.59-.74,24.43-9.1,47.55-22.65,67.72-18.12,28.11-43.06,58.2-52.54,90.45-10.96,38.76,3.1,84.22,34.93,109.31,25.67,20.91,60.56,29.27,93.12,29.66,49.56.15,99.2-16.65,139.66-45.03,39.26-27.8,66.87-73.1,83.75-117.44,20.83-57.19,29.78-117.86,14.13-177.61ZM3285.13,1392.73c-13.13,19.63-35.74,28.92-48.87,47.74-10.73,16.53-12.2,41.31-26.33,55.18-11.11,10.73-31.75,15.57-45.5,7.63-8.67-10.45-6.62-26.91-1.12-38.41,11.58-24.55,33.38-38.64,49.79-59.13,9.25-11.69,16.03-24.51,14.99-39.92-2.21-19.9-17-38.53-23.5-57.65-10.53-27.03-12.78-59.74,4.53-84.53,17.19-24.24,57.65-22.15,72.72,3.29,30.82,47.97,38.33,117.98,3.29,165.8Z"/>
    <path class="st1" d="M3093.6,1701.98c-55.68-.66-106.56-17.52-143.57-47.48-10.74-8.52-20.53-18.51-29.22-29.78-8.83,2.07-17.81,3.11-26.88,3.11-1.49,0-3-.03-4.52-.08l-1.7-.06-1.59-.13c-55.51-4.29-106.32-38.84-133.46-87.25-20.63,19.62-47.62,33.48-77.74,39.4l-1.86.34c-10.55,1.76-20.78,2.62-30.81,2.62-41.98,0-79.78-15.14-106.44-42.63-4.24-4.28-8.29-8.84-12.09-13.64-14.41,4.42-29.7,6.72-45.14,6.72-38.82,0-76.55-13.87-105.89-38.52-13.74,4.02-28.1,6.06-42.88,6.06-22.72,0-46.06-4.84-67.51-14.01-6.15-2.47-11.55-5.05-16.34-7.35-2.01.49-4.19.98-6.47,1.46-10.88,2.4-22.47,3.66-34.06,3.66-34.1,0-67.2-10.82-93.18-30.48-2.63-2.02-5.17-4.13-7.62-6.34-8.65,1.67-17.4,2.5-26.15,2.5-13.87,0-27.35-1.98-40.25-5.9-3.68,3.4-7.54,6.64-11.6,9.69-26.27,19.71-58.23,30.11-92.48,30.11-26.22,0-52.6-6.18-76.29-17.88-9.27-4.63-17.81-10.16-25.57-16.56-4.84,2.64-9.75,5.13-14.69,7.47l-1.76.81c-31.21,13.64-66.76,20.17-109.09,20.17-13.84,0-28.46-.69-44.67-2.11l-6.3-.63c-22.86-2.31-57.4-5.79-89.74-28.38-3.56-2.44-7-5.09-10.29-7.92-4.92,3.74-9.95,7.36-15.08,10.83-52.76,35.64-113.59,55.26-171.31,55.26-7.11,0-14.19-.3-21.02-.88-30.67-2.55-59.19-11.43-83.55-25.91-17.92,10.75-39.25,17.16-62.72,18.73-3.55.24-7.13.35-10.71.35-16.3,0-32.21-2.32-47.51-6.9-19.47,20.01-41.79,30.25-52.48,35.14l-.86.39c-33.6,14.86-63.66,22.06-92.04,22.06-15.12,0-29.81-2.08-43.69-6.18l-2-.62c-4.07-1.34-8.02-2.89-11.85-4.63-43.19,39.59-100.15,61.41-160.57,61.41h-2.18c-30.86-.02-62.21-5.67-91.63-16.47-1.91,1.93-3.89,3.82-5.92,5.64-26.57,40.71-75.1,66.81-124.88,66.81-1.52,0-3.03-.03-4.54-.08-14.17-.32-28.37-3.14-41.81-8.26-3.15,4.22-6.52,8.23-10.1,11.99-25.81,27.49-63.11,43.33-102.21,43.33-42.18,0-81.34-17.97-107.45-49.3-27.99-32.61-36.28-71.66-42.33-100.18-1.66-7.82-3.22-15.2-4.84-20.7l-.48-1.61-.42-1.69c-9.69-38.96-31.28-72.59-62.98-114.24l-5.48-7.06c-13.85-17.88-28.12-36.3-41.1-45.84l-.48-.35c-4.51-3.39-11.41-7.34-18.09-11.15-13.5-7.72-30.22-17.28-46.16-31.54l-.64-.57c-33.28-30.68-47.03-71.19-37.98-111.37l.75-3.33,1.03-3.25c7.09-22.46,20.31-42.62,38.36-58.56,9.78-15.22,22.73-28.5,37.67-38.58,27.66-18.66,62.08-28.93,96.91-28.93,12.24,0,24.47,1.25,36.35,3.7l1.16.25c28.21,6.34,53.86,20.33,75.59,41,4.15-4.36,8.53-8.39,13.13-12.07l1.5-1.17c20.38-15.42,44.35-23.45,69.61-23.45,4.14,0,8.31.22,12.5.66,6.47-14.9,15.06-28.51,25.38-40.12,3.54-3.97,7.39-7.86,11.48-11.62,3.95-5.98,7.99-11.27,12.28-16.11,32.07-35.93,79.68-57.35,127.38-57.35,9.66,0,19.33.88,28.73,2.62l1.19.23c18.69,3.8,35.99,11.8,50.56,23.15,23.07-17.3,48.49-28.68,75.87-33.91,11.67-2.13,22.78-3.15,34.19-3.15,14.65,0,29.33,1.68,43.92,5.02,1.54-13.93,4.78-25.29,7.09-33.33-3.03-8.16-8.38-18.61-13.22-28.06-2.44-4.76-4.79-9.36-7.03-13.91-18.67-37.73-40.86-80.5-67.69-109.93-3.56-3.97-11.81-8.74-21.36-14.28l-5.72-3.34-1.87-1.13c-19.54-11.92-60.23-36.76-71.1-86.19l-.65-2.98-.43-2.99c-5.64-39.83,9.88-79.83,41.63-107.9,15.7-24.65,40.06-44,69.09-54.77,23.48-9.2,44.08-10.39,59.43-10.39,3.71,0,7.42.08,11.15.17.56.02,1.1.03,1.62.04,3.7-2.99,7.89-6.29,12.72-9.63,55.83-39.21,124.94-60.86,194.44-60.86,16.57,0,33.18,1.24,49.37,3.67,30.86,4.85,57.86,14.01,80.58,27.32,12.82-6.75,27.27-12.17,43.18-16.15l1.21-.3c27.61-6.41,53.77-9.33,79.07-12.16,19.96-2.24,38.58-4.32,55.39-7.86,3.09-.63,8.16-2.27,13.06-3.87,15.31-4.97,36.19-11.74,60.62-11.74,6.49,0,13,.49,19.34,1.46,12.68,1.77,24.97,5.56,36.62,11.27,23.88-14.15,51.36-21.81,78.98-21.81,11.98,0,23.83,1.48,35.24,4.41l1.34.35c18.22,5.09,34.69,14.45,48.1,27.07,25.48-12.42,56.85-26.3,90.76-33.05l1.8-.33c11.76-2.03,22.2-2.98,32.2-2.98,28.78,0,53.85,7.91,74.52,23.51,3.95,2.94,7.68,6.17,11.15,9.66,10.12-3.08,20.31-5.46,30.45-7.09,10.24-1.65,20.68-2.48,31.04-2.48,33.93,0,66.81,8.98,95.1,25.97l1.79,1.11c13.81,8.89,26.68,19.04,38.54,30.38,33.41-32.44,79.49-51.75,126.25-51.75,26.75,0,53.1,6.41,76.17,18.54,8.36,4.29,16.4,9.36,24.05,15.15,9.38-13.47,20.3-25.18,32.52-34.85,26.66-21.16,61.37-32.82,97.71-32.82,20.16,0,40.78,3.62,59.64,10.48,23.24,8.58,42.49,21.78,56.61,38.7,9.1-1.33,18.18-1.99,27.14-1.99,17.14,0,34.13,2.35,50.5,7,72.03,19.2,132.42,61.9,169.64,120.1,38.62,59.72,54.07,135.6,43.43,213.55-9.08,67.18-35.72,130.37-75.03,177.88-2.04,2.43-4.15,4.84-6.36,7.26,19.92-13.31,43.14-20.27,67.88-20.27,15.19,0,30.34,2.65,45.05,7.88,33.4,12.08,61.77,37.03,82.23,72.21,28.51-28.51,68.08-48.39,111.41-55.43l.74-.12c8.53-1.28,16.8-1.92,24.78-1.92,47.29,0,76.91,21.2,93.44,38.98,9.18,10.01,16.67,21.57,22.22,34.18,5.43-.53,10.92-.8,16.39-.8,45.6,0,83.46,18.35,111.35,34.34,66.8,38.37,115.63,104.12,134,180.42,17.96,69.16,12.4,144.89-16.65,224.63l-.33.9c-12.92,33.94-36.43,82.47-75.65,122.92-18.05,23.81-38.49,43.87-60.76,59.64-55.08,38.64-120.98,59.89-185.66,59.89h-.86Z"/>
    <g>
      <path class="st2" d="M2058.43,731.45c-3.49,25.71-27.61,48.32-41.55,69.54-13.05,18.93-22.77,38.95-21.53,62.57.35,18.9,9.76,36.09,25.09,47.01,22.96,16.61,54.79,20.21,82.2,16.26,19.9-3.06,42.44-11.38,54.52-28.42,10.11-14.02,7.9-31.25,2.09-46.5-8.05-19.86-18.43-38.53-24.94-59.05-13.4-37.33-16.8-75.97-17.39-115.39-.35-23.58-2.52-54.87,10.84-75.47,11.65-18.04,39.22-18.59,53.32-3.18,17.85,18.93,24.55,49.6,27.45,74.73,5.89,56.38-17.58,116.93-20.25,174.32-1.08,22.88-.58,51.27,14.64,69.97,16.92,20.87,49.76,21.99,71.98,9.52,19.21-10.38,30.59-30.7,31.17-52.31.54-24.59-4.88-48.94-4.07-73.65,1.08-53.7,20.02-104.16,43.13-151.9,8.79-17.73,17.08-37.21,29.12-52.93,15.26-19.17,35.97-34.11,51.85-52.62,7.67-9.18,12.74-20.48,8.91-32.53-3.91-13.16-16.03-21.22-28.3-25.75-25.67-9.33-57.65-7.67-79.61,9.76-27.14,21.49-37.33,59.74-39.22,92.85-2.09,31.98,8.67,68.38-6.12,97.85-9.14-3.64-17.5-4.99-22.61-14.29-12.2-22.34-14.25-50.61-22.22-74.81-9.02-30.71-24.36-58.54-53.9-73.61-41.62-22.07-96.92-3.17-121.85,35.24-14.79,23.89-12.78,51.27-9.22,77.94,4.99,30.63,9.41,63.89,6.47,94.83Z"/>
      <path class="st2" d="M1531.65,716.16c1.39,30.86-17.15,61.14-30.63,87.78-11.73,23.08-22.46,48.4-17.11,74.81,3.64,20.06,16.53,37.09,35.27,45.3,44.99,18.55,101.06,11.31,135.44-24.74,10.38-10.8,13.75-28.81,4.03-41.08-14.33-17.39-36.51-28.92-52-45.07-11.27-11.73-11.34-27.53-10.11-42.79,2.83-25.98,15.84-51.65,29.89-73.37,33.76-51.88,80.23-95.56,117.63-141.72,9.41-12.16,20.44-26.25,24.28-41.35,1.94-8.4.31-16.57-6.93-21.84-12.12-9.29-30.09-8.02-44.26-5.58-29.58,5.89-58.74,20.17-85.61,33.61-18.31,9.53-38.6,22.38-47.9,41.55-7.63,15.57-5.89,34.5,7.51,46.31,10.57,10.69,30.2,18.62,32.22,34.81-2.71,9.33-10.96,13.13-19.44,15.99-21.02,5.85-45.34,2.4-60.36-14.52-14.6-17.11-18.47-45.11-8.05-65.17,8.21-17.5,27.03-33.45,29.66-52.54,1.82-16.53-8.13-30.94-24.05-35.39-38.53-9.87-86.27,20.56-86.42,62.26-.58,36.47,20.17,74.07,43.17,101.33,15.06,18.7,32.41,35.89,33.76,61.41Z"/>
      <path class="st2" d="M1198.34,691.1c16.42,46.7,19.55,98.16,7.43,146.25-5.54,21.18-15.64,39.53-12.51,62.18,3.17,18.62,17.73,30.78,34.85,36.67,25.36,8.79,50.76,3.79,76.43-.74,54.87-10.69,110.2-37.75,146.25-81.39,17-20.6,32.02-48.79,29.47-76.24-1.67-19.55-14.95-35-33.38-40.93-26.56-8.75-59.01-2.52-85.07,5.77-10.14,3.14-20.52,12.55-15.99,24.05,7.94,12.97,29.35,19.79,34.15,34.62.7,9.87-7.16,16.73-14.44,21.95-24.78,16.69-59.67,17.5-85.73,3.29-13.78-7.51-23.89-20.6-25.17-36.55-.97-25.28,10.61-50.8,32.1-64.82,24.63-16.61,58.66-21.18,87.51-24.86,15.95-2.25,37.75-4.34,49.99-15.91,8.98-9.37,3.25-21.68-7.36-26.56-29.08-13.51-57.15,7.01-88.51,2.52-22.19-3.25-47.24-11.96-62.77-28.89-11.23-12.08-16.96-29.47-8.87-44.95,6.47-13.2,27.72-18.66,38.37-7.98,4.1,8.91,2.09,20.37,6.31,29.19,6.35,9.76,19.75,12.74,30.55,13.63,21.61,1.32,43.91-3.87,63.73-12.39,17.97-7.94,37.21-20.75,45.73-39.11,7.47-14.83,1.12-32.02-6.93-45.23-8.36-13.16-20.1-23.66-36.05-25.75-20.91-3.41-43.68,9.1-64.47,13.28-43.52,9.18-89.17,9.53-132.69,19.63-14.83,3.72-32.8,10.38-42.44,22.88-9.68,13.28-5.5,30.16-.19,44.3,12.58,30.86,28.73,60.29,39.69,92.08Z"/>
      <path class="st2" d="M1675.65,700.67c-10.07,42.51-6.2,87.89,12.97,127.35,19.94,41.47,55.52,73.72,97.03,92.89,26.76,12.16,56.84,16.22,85.57,9.02,39.03-9.33,71.25-35.74,95.25-67.06,34.19-45.23,53.55-101.76,55.87-158.29,3.1-71.05-25.21-142.45-86.31-181.79-21.53-12.93-47.08-16.96-71.75-12.97-38.91,6.23-71.48,27.88-100.94,52.89-42.13,36.01-75.12,83.48-87.7,137.96ZM1849.11,652.15c-12.62-15.88-26.02-34.77-22.92-56.22,3.72-23.15,30.24-35.39,51.61-30.28,19.17,3.79,33.8,17.77,41.47,35.35,13.4,30.86,11.73,66.02-1.05,96.8-9.18,23.93-25.01,50.49-22.5,76.78,2.09,21.64,16.07,42.82,11.23,64.66-6.16,26.52-38.84,42.01-64.08,37.13-14.21-2.71-21.88-14.37-20.91-28.5,4.45-47.74,51.19-81.27,54.87-131.65,2.21-26.72-12.04-44.57-27.72-64.08Z"/>
      <path class="st2" d="M757.98,678.4c16.34,9.53,32.25,18.04,45.07,32.37,33.57,36.82,58.51,84.29,80.46,128.67,10.45,21.22,23.58,43.56,28.65,66.75,4.8,20.79-7.2,35.86-8.02,57.89-.62,13.09,3.56,25.86,15.76,32.25,16.11,8.13,38.26,5.89,55.6,3.83,48.01-7.36,94.59-26.17,135.83-51.58,24.82-15.64,46.5-35.12,55.72-63.89,8.75-28.54,7.24-64-12.27-88.01-13.51-17.27-31.05-25.32-49.72-35.62-8.44-5.03-19.48-10.96-21.49-21.53-2.4-15.57,9.68-32.41,17.73-44.95,13.94-21.26,29.19-44.95,34.11-70.24,5.54-27.38-3.79-59.01-25.83-76.82-17.77-14.64-41.31-21.8-63.73-25.32-64.28-9.68-132.5,6.23-185.66,43.64-12.43,8.56-23.43,21.64-39.07,23.46-22.03,2.56-41.47-3.29-63.15,5.5-19.75,7.09-38.99,25.4-35.78,48.09,3.6,16.38,22.5,27.37,35.78,35.51ZM906.39,665.98c10.18-35.58,44.91-60.67,81-64.39,15.45-1.55,31.01,2.9,39.8,16.42,10.92,17.66,11.23,42.28,4.41,61.49-9.56,25.21-32.49,46.39-53.4,62.49-9.56,8.05-25.09,18.82-26.29,32.25.23,9.68,6.31,17.85,16.15,19.36,21.53,3.21,42.75,2.44,63.85,9.33,23.35,6.97,47.2,21.37,55.53,45.53,6.74,18.86-.35,40.42-17.7,50.68-14.13,8.36-29.85,5.96-44.02-.85-25.21-12.62-43.37-34.73-57.23-58.74-21.8-37.64-40.23-77.29-56.8-117.48-7.63-17.93-10.88-37.06-5.3-56.11Z"/>
      <path class="st2" d="M2392.32,654.36c1.2,27.65,12.04,52.58,10.07,81.35-2.52,40.58-30.59,72.06-52.43,104.12-11.89,17.35-23.46,36.36-23.12,58.16,1.28,31.25,21.14,57.65,47.78,72.72,37.17,21.22,84.87,24.47,126.46,18.16,53.2-8.13,108.18-33.61,143.3-75.35,31.75-38.37,50.61-88.24,57.23-137.3,7.47-54.75-1.12-112.21-31.44-159.1-28.19-44.06-73.22-72.56-123.25-85.8-74.89-21.57-156.82,46.46-154.61,123.05ZM2516.38,886.33c2.01-14.71,15.84-26.41,24.74-37.52,16.8-19.52,25.17-45.38,22.46-71.05-3.14-32.06-25.71-60.13-28.73-92.31-1.7-18.35,6.04-39.38,23.93-47.12,18.51-7.4,39.92.23,54.67,12.31,18.7,14.56,27.3,41.28,32.56,63.46,14.48,64.93-12.58,134.59-65.05,174.71-15.37,11.19-36.24,18.43-54.94,12.04-6.27-2.17-10.92-7.59-9.64-14.52Z"/>
      <path class="st2" d="M2024.4,1312.45c-1.12,18.43,7.2,37.37,22.84,47.59,19.67,13.24,47.01,12.08,65.94-2.01,13.2-9.95,23.39-24.35,29.08-39.84,7.47-20.21,2.98-44.72-3.29-64.78-10.96-34.73-34.77-58.82-55.21-88.63-5.69-8.4-14.68-19.67-13.32-30.36,1.7-7.28,8.29-13.59,13.13-19.05,17.58-19.13,38.99-34.58,49.14-59.36,11.85-27.8,2.94-60.17-17.58-81.35-21.72-22.57-51.77-29.5-82.28-28.54-27.65,1.39-56.8,5.58-82.36,16.8-22.46,9.8-40.19,27.34-52.27,48.52-18.74,32.95-25.71,73.22-18,110.43,5.65,27.26,24.32,45.3,25.94,74.26,3.48,39.8-13.09,70.82-26.72,106.6-6.35,17.35-13.51,37.75-11.62,56.38,1.55,15.68,12.08,27.72,25.79,34.58,26.21,12.93,60.25,13.82,84.33-4.26,12.82-9.68,24.05-25.4,21.72-42.24-3.18-26.76-23.16-48.17-28.34-73.72-5.11-24.24-.7-50.41,14.25-70.43,4.3-5.3,9.22-10.03,16.42-10.42,12.39-1.16,21.76,8.48,28.89,17.27,11.73,15.49,20.48,36.9,17.73,56.53-2.32,16.73-21.99,29.23-24.2,46.04ZM1999.89,1078.31c-9.25,6.93-15.41,29.74-29.78,22.42-9.49-17.08-3.29-38.72,5.96-54.56,12.78-21.99,34.03-41.39,60.56-42.63,15.91-.74,36.32,6.5,44.06,21.37,6.04,13.01.5,26.72-12.39,32.56-20.56,8.4-49.64,4.49-68.42,20.83Z"/>
      <path class="st2" d="M2402.19,1202.37c-7.36-9.22-20.75-7.82-30.82-4.72-19.21,6.2-29.62,21.76-39.69,38.06-10.69,18.04-24.35,35.47-42.79,46.04-9.25,5.07-20.25,7.98-29.97,2.4-9.41-5.61-13.13-16.8-15.76-26.83-10.88-42.59-5.73-88.01,2.48-130.68,8.25-38.91,25.28-79.88,15.18-120.07-8.79-40.19-54.32-63-92.66-59.09-16.8,2.05-30.7,13.94-27.49,32.14,6.74,26.48,31.25,49.06,36.78,76.86,8.98,39.73,8.48,83.71,8.94,124.37.5,42.44-1.05,88.71-16.53,128.74-6.08,16.8-18.93,31.79-22.42,49.02-2.44,12.43,3.87,23.5,13.51,30.9,17.15,12.97,41.04,16.92,61.84,12.2,8.91-1.78,17.77-5.11,26.79-5.96,14.87.85,29.81,10.88,43.64,16.26,22.73,9.99,51.38,11.69,72.91-2.13,11.07-7.16,19.75-17.54,18.55-31.52-2.21-17.39-11.46-32.22-11.5-50.37-.04-32.6,14.98-60.13,27.65-89.02,4.68-11.23,9.02-25.67,1.36-36.59Z"/>
      <path class="st2" d="M1783.06,1384c23-10.88,46.27-26.45,61.02-47.55,15.57-21.68,24.36-47.63,21.72-74.5-1.7-19.48-11.04-38.45-28.46-48.28-17.69-10.03-40.31-11.19-60.05-8.52-7.71,1.12-16.77,2.44-23.39,6.78-6.66,4.8-8.21,12.86-4.68,20.13,5.11,9.8,15.14,17.04,20.79,26.68,3.95,7.59,2.25,17.23-4.57,22.57-28.07,20.29-70.24,14.91-90.84-13.36-15.33-21.57-8.75-50.88,7.9-69.66,15.84-17.66,39.57-24.63,61.84-30.24,23.74-6.04,47.55-.31,70.9-4.76,10.22-2.4,19.9-9.18,18.2-21.06-3.33-11.5-14.02-17.46-25.25-19.05-18.55-2.56-38.41,5.15-57.69,1.78-24.36-3.95-48.28-22.46-58.78-44.68-7.55-15.1-5.69-38.84,10.18-47.9,9.02-4.03,25.56-2.83,30.86,6.85,3.29,11.31,1.2,25.63,6.66,36.05,8.09,12.51,24.51,13.47,37.95,13.2,24.08-.77,52.7-5.77,71.4-22.15,16.73-14.98,18.66-37.98,15.64-58.93-2.67-16.34-9.25-35.43-22.26-46.39-11.46-9.45-25.71-9.68-39.84-8.44-49.56,5.03-99.28,2.71-148.72,6.31-16.42,1.39-35.12,4.14-47.7,15.76-11.23,10.38-12.39,25.52-11.27,39.88,2.36,24.74,12.78,49.79,18.43,74.23,14.29,58.31,18.78,122.12,1.05,180.16-7.2,24.74-22.07,48.32-21.3,74.61.31,14.95,7.12,28.61,19.51,37.13,16.57,11.58,37.37,12.7,56.8,14.75,36.71,3.21,79.57,3.6,113.95-11.42Z"/>
      <path class="st2" d="M1267.11,1006.75c1.7-20.21-7.59-43.56-28.42-49.95-19.01-5.73-40.89,5.61-56.07,16.49-23.35,16.53-43.87,42.32-45.53,71.86-1.67,28.27,12.35,58.23,21.99,84.41,8.6,23.85,21.45,49.37,24.01,74.61.77,9.68-2.56,18.16-13.71,17.46-15.41-.46-23.66-17.89-31.17-29.04-27.1-40.97-53.86-82.43-83.44-121.7-16.03-20.44-34.07-43.37-59.09-52.89-18.86-7.4-41.82-4.69-55.99,10.57-11.69,12.97-12.97,31.29-11.11,47.86,3.25,24.74,15.68,48.83,26.21,71.21,32.29,62.96,36.94,140.13,17.58,207.73-6.2,24.32-22.42,45.03-21.26,69.5.66,17.35,9.37,33.84,26.6,39.53,26.14,7.74,55.87-1.59,79.96-12.24,16.53-7.59,32.56-16.46,38.53-34.89,6.62-20.75,2.17-45.81-4.41-66.17-11.89-37.25-37.71-65.24-49.17-101.68-5.58-17.97-7.63-38.6-.19-56.34,4.26-9.25,11.69-17.54,22.73-16.96,4.07,2.48,7.32,5.81,10.26,9.49,20.72,26.76,34.96,57.89,37.56,91.92,2.79,28.85-4.96,63.15,4.84,90.45,11.19,32.02,45.92,50.61,78.83,48.4,13.28-.89,28.96-4.92,36.75-16.73,8.05-12.43,7.43-30.51,5.69-44.64-2.79-28.07-14.64-52.5-19.71-80.31-13.67-67.64-1.59-137.88,19.44-202.7,7.55-24.63,26.17-40.73,28.3-65.28Z"/>
      <path class="st2" d="M1355.12,1423.69c48.87,4.1,100.05-13.63,140.24-40.77,32.76-22.19,61.41-52.54,77.17-89.13,19.44-44.61,24.66-95.91,19.01-143.92-6.2-51.11-26.45-101.41-63.77-137.69-27.96-27.57-64.47-44.57-103.07-50.57-25.56-3.95-53.55-5.23-77.44,6.19-46.12,21.45-78.18,73.03-74.85,124.06,2.32,41.7,32.45,69,31.83,112.21.62,41.24-26.41,82.63-35.7,121.85-4.45,19.44-2.17,39.46,9.29,56.07,17.27,26.48,46.62,39.15,77.29,41.7ZM1430.74,1055.31c22.46-10.38,52.08-1.12,68.92,15.91,43.33,47.08,54.4,117.24,31.05,176.45-10.15,25.36-26.64,55.68-52,68.38-9.91,4.84-26.76,9.18-36.28,1.97-8.25-10.38-.04-26.72,5.23-36.86,10.38-18.04,18.28-36.51,18.12-57.73.04-17.62-5.11-34.73-14.4-49.64-13.09-21.68-34.15-42.36-40.54-67.26-4.99-19.01.74-42.48,19.9-51.23Z"/>
      <path class="st2" d="M2661.54,1051.51c-30.05-36.63-79.49-50.96-125.45-45.81-23.46,2.94-47.66,12.35-60.05,33.76-10.61,18.08-9.14,39.96-7.78,60.09,2.13,24.55,2.83,48.48-3.29,72.6-12.85,53.36-46.42,97.5-60.52,151.94-7.74,27.92-9.64,62.92,3.76,89.37,19.13,33.38,67.3,49.14,101.91,31.63,26.37-13.2,40.66-46.27,29.31-74.03-8.83-20.17-36.28-25.86-47.43-45.38-9.8-17.04-8.67-40.81-5.27-59.51,4.38-21.41,14.13-46.23,32.53-59.36,15.91-11.54,35.31-17.23,54.79-12.35,11.46,3.06,23.35,9.68,26.52,22.03,2.79,12.58-2.56,25.52-6.7,37.25-19.01,50.65-28.42,105.44-27.34,159.49.46,26.29,8.21,51.46,27.07,70.35,16.84,17.54,42.86,20.68,65.75,16.84,23.04-4.53,45.96-18.82,52.39-42.63,6.23-24.66-5.5-45.84-19.55-65.09-17.08-22.69-33.34-42.48-35.12-72.25-4.45-56.49,26.52-118.72,31.71-174.43,3.29-33.84-5.3-68.15-27.22-94.52ZM2599.47,1139.99c-9.72,19.98-45.11,18.62-53.47-1.55-1.55-11.54,1.94-23.5.89-35.2-.85-11.58-6.89-23.12-6.43-34.58,1.59-10.92,12.62-16.34,22.57-17.31,18.2-1.28,34.81,11.46,39.38,28.89,5.38,18.7,6.43,42.13-2.94,59.75Z"/>
      <path class="st2" d="M3024.97,1185.48c14.95-22.23,38.06-33.03,48.17-56.73,7.94-18.9,7.98-44.33-6.54-60.17-12.12-13.05-30.09-14.71-46.81-12.2-28.11,4.57-57.07,18.62-74.81,41.39-13.75,17.42-18.28,38.1-19.36,59.86-1.47,43.87,5.42,87.89,3.72,131.73-.89,9.33-1.55,25.4-11.35,30.12-14.83,3.02-23.7-12-26.95-24.2-10.76-44.14-22.84-87.89-34.42-131.84-8.05-30.55-14.87-62.61-30.74-90.26-9.14-15.88-22.11-30.82-39.77-37.21-14.91-5.3-31.71-4.49-44.26,5.89-12.43,10.34-18.62,27.61-21.49,43.06-9.76,50.37,13.2,107.22,1.74,158.4-4.49,20.83-16.11,36.24-26.76,54.05-11.38,18.2-14.95,39.77-6.54,59.94,12.27,29.54,46.23,56.26,79.65,47.55,26.45-5.96,44.88-30.09,41.7-57.42-1.28-20.02-16.65-27.1-29.12-39.88-14.79-14.06-14.67-36.75-9.99-55.18,3.52-12.74,9.45-28.58,20.56-36.55,10.18-6.7,21.76-2.9,26.68,8.02,12.31,27.41,19.09,58.43,20.29,88.4,1.74,54.21-26.64,96.88-25.83,151.36.77,42.51,37.6,80.15,79.69,83.4,22.19.85,39.49-17.23,46.04-37.06,6.58-18.78.15-35.31-1.66-54.17-5.89-45.88,1.78-92.23,17-135.64,16.77-47.66,42.63-93.08,71.17-134.67Z"/>
      <path class="st2" d="M887.46,1476.04c27.34-25.25,43.95-58.16,53.32-93.82,26.48-99.2-6.66-212.23-81.62-282.19-32.64-29.81-76.24-52.7-121.66-44.41-36.05,6.89-61.26,32.1-81.16,61.33-32.1,48.4-50.1,106.87-56.38,164.29-4.88,48.05-1.47,102.11,21.41,145.59,29.7,56.34,94.13,90.45,156.93,90.41,40.04.5,79.76-13.82,109.15-41.2ZM748.07,1409.29c1.86-27.45,25.36-46.89,38.53-69.31,10.26-16.49,12.04-35.93,6.74-54.48-10.65-39.8-43.71-67.72-54.52-106.71-2.9-11.31-4.14-23.74,4.57-32.87,8.56-8.4,20.1-8.09,31.25-7.09,21.45,2.98,42.98,16.96,48.21,39.03,4.61,21.37-9.1,43.06-9.87,64.93-.74,35.51,28.19,68.84,34.54,104.43,4.92,25.98,2.83,57.58-12.43,80.07-13.86,21.03-43.52,30.78-66.21,18.28-13.55-7.12-22.19-20.68-20.79-36.28Z"/>
      <path class="st2" d="M578.16,1376.3c-8.48-43.13-7.59-89.83-5.42-133.62,1.39-26.45,3.25-51.46,13.24-76.32,7.74-19.94,21.99-41.55,24.12-62.92,1.28-18.82-12.24-33.57-30.12-37.21-29.23-5.42-61.37,6.97-81,28.96-16.73,18.82-21.18,45.96-18.08,70.28,4.92,41.47,25.63,77.09,38.8,115.15,3.37,8.94,3.06,17.85,2.28,27.18-8.71-.66-16.65.19-24.05-5.38-12.85-9.53-21.57-26.06-30.4-39.22-17.54-27.14-35.08-52.12-65.05-66.75-14.91-7.4-31.79-10.92-46.12-.08-17.58,14.09-26.14,40.19-28.81,61.84-4.3,29.93,4.88,60.6-.7,89.75-2.17,11.07-8.17,21.95-20.99,21.64-9.29-10.34-12.47-24.63-15.95-37.75-8.48-34.5-14.79-71.01-32.83-102.14-12.62-21.76-32.33-40.77-57.5-46.43-24.12-5-51.11-.81-71.71,13.09-9.53,6.43-16.92,15.72-20.41,26.76-2.98,13.24,4.26,25.32,13.67,34,17.15,15.33,39.84,23.97,58.74,38.18,24.59,18.08,44.14,44.88,62.84,68.84,33.88,44.49,63.54,88.79,77.25,143.88,8.79,29.89,10.57,67.61,31.48,91.65,21.76,26.52,65.98,27.37,89.21,2.4,12.74-13.24,17.04-31.36,14.4-49.33-6.85-55.29-36.09-103.73-57.54-154.18-12.43-29.62-27.53-56.84-27.37-89.91.31-13.82,1.74-33.22,12.43-43.37,9.33-8.32,21.57-4.99,30.67,1.78,15.22,11.65,26.37,29.5,35,46.39,18.93,38.76,26.41,83.48,32.6,125.76,5.54,36.4,12.51,76.59,31.6,108.61,8.67,14.91,23.66,25.05,41.16,25.36,25.17.89,53.59-14.17,63.62-37.98,8.83-21.68,2.05-46-6.62-66.56-13.09-30.4-26.1-59.59-32.45-92.35Z"/>
      <path class="st2" d="M3331.32,1281.12c-12.93-54.25-47.28-101.87-95.75-129.71-25.59-14.67-53.24-27.1-83.52-22.77-58.24,8.25-107.37,59.32-113.61,117.83-3.06,26.45,3.64,51.73,2.48,77.59-.74,24.43-9.1,47.55-22.65,67.72-18.12,28.11-43.06,58.2-52.54,90.45-10.96,38.76,3.1,84.22,34.93,109.31,25.67,20.91,60.56,29.27,93.12,29.66,49.56.15,99.2-16.65,139.66-45.03,39.26-27.8,66.87-73.1,83.75-117.44,20.83-57.19,29.78-117.86,14.13-177.61ZM3259.53,1420.24c-13.13,19.63-35.74,28.92-48.87,47.74-10.73,16.53-12.2,41.31-26.33,55.18-11.11,10.73-31.75,15.57-45.5,7.63-8.67-10.45-6.62-26.91-1.12-38.41,11.58-24.55,33.38-38.64,49.79-59.13,9.25-11.69,16.03-24.51,14.99-39.92-2.21-19.9-17-38.53-23.5-57.65-10.53-27.03-12.78-59.74,4.53-84.53,17.19-24.24,57.65-22.15,72.72,3.29,30.82,47.97,38.33,117.98,3.29,165.8Z"/>
    </g>
    <g>
      <path class="st0" d="M2082.2,703.72c-3.49,25.71-27.61,48.32-41.55,69.54-13.05,18.93-22.77,38.95-21.53,62.57.35,18.9,9.76,36.09,25.09,47.01,22.96,16.61,54.79,20.21,82.2,16.26,19.9-3.06,42.44-11.38,54.52-28.42,10.11-14.02,7.9-31.25,2.09-46.5-8.05-19.86-18.43-38.53-24.94-59.05-13.4-37.33-16.8-75.97-17.39-115.39-.35-23.58-2.52-54.87,10.84-75.47,11.65-18.04,39.22-18.59,53.32-3.18,17.85,18.93,24.55,49.6,27.45,74.73,5.89,56.38-17.58,116.93-20.25,174.32-1.08,22.88-.58,51.27,14.64,69.97,16.92,20.87,49.76,21.99,71.98,9.52,19.21-10.38,30.59-30.7,31.17-52.31.54-24.59-4.88-48.94-4.07-73.65,1.08-53.7,20.02-104.16,43.13-151.9,8.79-17.73,17.08-37.21,29.12-52.93,15.26-19.17,35.97-34.11,51.85-52.62,7.67-9.18,12.74-20.48,8.91-32.53-3.91-13.16-16.03-21.22-28.3-25.75-25.67-9.33-57.65-7.67-79.61,9.76-27.14,21.49-37.33,59.74-39.22,92.85-2.09,31.98,8.67,68.38-6.12,97.85-9.14-3.64-17.5-4.99-22.61-14.29-12.2-22.34-14.25-50.61-22.22-74.81-9.02-30.71-24.36-58.54-53.9-73.61-41.62-22.07-96.92-3.17-121.85,35.24-14.79,23.89-12.78,51.27-9.22,77.94,4.99,30.63,9.41,63.89,6.47,94.83Z"/>
      <path class="st0" d="M1555.42,688.42c1.39,30.86-17.15,61.14-30.63,87.78-11.73,23.08-22.46,48.4-17.11,74.81,3.64,20.06,16.53,37.09,35.27,45.3,44.99,18.55,101.06,11.31,135.44-24.74,10.38-10.8,13.75-28.81,4.03-41.08-14.33-17.39-36.51-28.92-52-45.07-11.27-11.73-11.34-27.53-10.11-42.79,2.83-25.98,15.84-51.65,29.89-73.37,33.76-51.88,80.23-95.56,117.63-141.72,9.41-12.16,20.44-26.25,24.28-41.35,1.94-8.4.31-16.57-6.93-21.84-12.12-9.29-30.09-8.02-44.26-5.58-29.58,5.89-58.74,20.17-85.61,33.61-18.31,9.53-38.6,22.38-47.9,41.55-7.63,15.57-5.89,34.5,7.51,46.31,10.57,10.69,30.2,18.62,32.22,34.81-2.71,9.33-10.96,13.13-19.44,15.99-21.02,5.85-45.34,2.4-60.36-14.52-14.6-17.11-18.47-45.11-8.05-65.17,8.21-17.5,27.03-33.45,29.66-52.54,1.82-16.53-8.13-30.94-24.05-35.39-38.53-9.87-86.27,20.56-86.42,62.26-.58,36.47,20.17,74.07,43.17,101.33,15.06,18.7,32.41,35.89,33.76,61.41Z"/>
      <path class="st0" d="M1222.11,663.37c16.42,46.7,19.55,98.16,7.43,146.25-5.54,21.18-15.64,39.53-12.51,62.18,3.17,18.62,17.73,30.78,34.85,36.67,25.36,8.79,50.76,3.79,76.43-.74,54.87-10.69,110.2-37.75,146.25-81.39,17-20.6,32.02-48.79,29.47-76.24-1.67-19.55-14.95-35-33.38-40.93-26.56-8.75-59.01-2.52-85.07,5.77-10.14,3.14-20.52,12.55-15.99,24.05,7.94,12.97,29.35,19.79,34.15,34.62.7,9.87-7.16,16.73-14.44,21.95-24.78,16.69-59.67,17.5-85.73,3.29-13.78-7.51-23.89-20.6-25.17-36.55-.97-25.28,10.61-50.8,32.1-64.82,24.63-16.61,58.66-21.18,87.51-24.86,15.95-2.25,37.75-4.34,49.99-15.91,8.98-9.37,3.25-21.68-7.36-26.56-29.08-13.51-57.15,7.01-88.51,2.52-22.19-3.25-47.24-11.96-62.77-28.89-11.23-12.08-16.96-29.47-8.87-44.95,6.47-13.2,27.72-18.66,38.37-7.98,4.1,8.91,2.09,20.37,6.31,29.19,6.35,9.76,19.75,12.74,30.55,13.63,21.61,1.32,43.91-3.87,63.73-12.39,17.97-7.94,37.21-20.75,45.73-39.11,7.47-14.83,1.12-32.02-6.93-45.23-8.36-13.16-20.1-23.66-36.05-25.75-20.91-3.41-43.68,9.1-64.47,13.28-43.52,9.18-89.17,9.53-132.69,19.63-14.83,3.72-32.8,10.38-42.44,22.88-9.68,13.28-5.5,30.16-.19,44.3,12.58,30.86,28.73,60.29,39.69,92.08Z"/>
      <path class="st0" d="M1699.42,672.94c-10.07,42.51-6.2,87.89,12.97,127.35,19.94,41.47,55.52,73.72,97.03,92.89,26.76,12.16,56.84,16.22,85.57,9.02,39.03-9.33,71.25-35.74,95.25-67.06,34.19-45.23,53.55-101.76,55.87-158.29,3.1-71.05-25.21-142.45-86.31-181.79-21.53-12.93-47.08-16.96-71.75-12.97-38.91,6.23-71.48,27.88-100.94,52.89-42.13,36.01-75.12,83.48-87.7,137.96ZM1872.88,624.42c-12.62-15.88-26.02-34.77-22.92-56.22,3.72-23.15,30.24-35.39,51.61-30.28,19.17,3.79,33.8,17.77,41.47,35.35,13.4,30.86,11.73,66.02-1.05,96.8-9.18,23.93-25.01,50.49-22.5,76.78,2.09,21.64,16.07,42.82,11.23,64.66-6.16,26.52-38.84,42.01-64.08,37.13-14.21-2.71-21.88-14.37-20.91-28.5,4.45-47.74,51.19-81.27,54.87-131.65,2.21-26.72-12.04-44.57-27.72-64.08Z"/>
      <path class="st0" d="M781.75,650.67c16.34,9.53,32.25,18.04,45.07,32.37,33.57,36.82,58.51,84.29,80.46,128.67,10.45,21.22,23.58,43.56,28.65,66.75,4.8,20.79-7.2,35.86-8.02,57.89-.62,13.09,3.56,25.86,15.76,32.25,16.11,8.13,38.26,5.89,55.6,3.83,48.01-7.36,94.59-26.17,135.83-51.58,24.82-15.64,46.5-35.12,55.72-63.89,8.75-28.54,7.24-64-12.27-88.01-13.51-17.27-31.05-25.32-49.72-35.62-8.44-5.03-19.48-10.96-21.49-21.53-2.4-15.57,9.68-32.41,17.73-44.95,13.94-21.26,29.19-44.95,34.11-70.24,5.54-27.38-3.79-59.01-25.83-76.82-17.77-14.64-41.31-21.8-63.73-25.32-64.28-9.68-132.5,6.23-185.66,43.64-12.43,8.56-23.43,21.64-39.07,23.46-22.03,2.56-41.47-3.29-63.15,5.5-19.75,7.09-38.99,25.4-35.78,48.09,3.6,16.38,22.5,27.37,35.78,35.51ZM930.16,638.24c10.18-35.58,44.91-60.67,81-64.39,15.45-1.55,31.01,2.9,39.8,16.42,10.92,17.66,11.23,42.28,4.41,61.49-9.56,25.21-32.49,46.39-53.4,62.49-9.56,8.05-25.09,18.82-26.29,32.25.23,9.68,6.31,17.85,16.15,19.36,21.53,3.21,42.75,2.44,63.85,9.33,23.35,6.97,47.2,21.37,55.53,45.53,6.74,18.86-.35,40.42-17.7,50.68-14.13,8.36-29.85,5.96-44.02-.85-25.21-12.62-43.37-34.73-57.23-58.74-21.8-37.64-40.23-77.29-56.8-117.48-7.63-17.93-10.88-37.06-5.3-56.11Z"/>
      <path class="st0" d="M2416.09,626.63c1.2,27.65,12.04,52.58,10.07,81.35-2.52,40.58-30.59,72.06-52.43,104.12-11.89,17.35-23.46,36.36-23.12,58.16,1.28,31.25,21.14,57.65,47.78,72.72,37.17,21.22,84.87,24.47,126.46,18.16,53.2-8.13,108.18-33.61,143.3-75.35,31.75-38.37,50.61-88.24,57.23-137.3,7.47-54.75-1.12-112.21-31.44-159.1-28.19-44.06-73.22-72.56-123.25-85.8-74.89-21.57-156.82,46.46-154.61,123.05ZM2540.15,858.6c2.01-14.71,15.84-26.41,24.74-37.52,16.8-19.52,25.17-45.38,22.46-71.05-3.14-32.06-25.71-60.13-28.73-92.31-1.7-18.35,6.04-39.38,23.93-47.12,18.51-7.4,39.92.23,54.67,12.31,18.7,14.56,27.3,41.28,32.56,63.46,14.48,64.93-12.58,134.59-65.05,174.71-15.37,11.19-36.24,18.43-54.94,12.04-6.27-2.17-10.92-7.59-9.64-14.52Z"/>
      <path class="st0" d="M2048.17,1284.71c-1.12,18.43,7.2,37.37,22.84,47.59,19.67,13.24,47.01,12.08,65.94-2.01,13.2-9.95,23.39-24.35,29.08-39.84,7.47-20.21,2.98-44.72-3.29-64.78-10.96-34.73-34.77-58.82-55.21-88.63-5.69-8.4-14.68-19.67-13.32-30.36,1.7-7.28,8.29-13.59,13.13-19.05,17.58-19.13,38.99-34.58,49.14-59.36,11.85-27.8,2.94-60.17-17.58-81.35-21.72-22.57-51.77-29.5-82.28-28.54-27.65,1.39-56.8,5.58-82.36,16.8-22.46,9.8-40.19,27.34-52.27,48.52-18.74,32.95-25.71,73.22-18,110.43,5.65,27.26,24.32,45.3,25.94,74.26,3.48,39.8-13.09,70.82-26.72,106.6-6.35,17.35-13.51,37.75-11.62,56.38,1.55,15.68,12.08,27.72,25.79,34.58,26.21,12.93,60.25,13.82,84.33-4.26,12.82-9.68,24.05-25.4,21.72-42.24-3.18-26.76-23.16-48.17-28.34-73.72-5.11-24.24-.7-50.41,14.25-70.43,4.3-5.3,9.22-10.03,16.42-10.42,12.39-1.16,21.76,8.48,28.89,17.27,11.73,15.49,20.48,36.9,17.73,56.53-2.32,16.73-21.99,29.23-24.2,46.04ZM2023.66,1050.57c-9.25,6.93-15.41,29.74-29.78,22.42-9.49-17.08-3.29-38.72,5.96-54.56,12.78-21.99,34.03-41.39,60.56-42.63,15.91-.74,36.32,6.5,44.06,21.37,6.04,13.01.5,26.72-12.39,32.56-20.56,8.4-49.64,4.49-68.42,20.83Z"/>
      <path class="st0" d="M2425.96,1174.63c-7.36-9.22-20.75-7.82-30.82-4.72-19.21,6.2-29.62,21.76-39.69,38.06-10.69,18.04-24.35,35.47-42.79,46.04-9.25,5.07-20.25,7.98-29.97,2.4-9.41-5.61-13.13-16.8-15.76-26.83-10.88-42.59-5.73-88.01,2.48-130.68,8.25-38.91,25.28-79.88,15.18-120.07-8.79-40.19-54.32-63-92.66-59.09-16.8,2.05-30.7,13.94-27.49,32.14,6.74,26.48,31.25,49.06,36.78,76.86,8.98,39.73,8.48,83.71,8.94,124.37.5,42.44-1.05,88.71-16.53,128.74-6.08,16.8-18.93,31.79-22.42,49.02-2.44,12.43,3.87,23.5,13.51,30.9,17.15,12.97,41.04,16.92,61.84,12.2,8.91-1.78,17.77-5.11,26.79-5.96,14.87.85,29.81,10.88,43.64,16.26,22.73,9.99,51.38,11.69,72.91-2.13,11.07-7.16,19.75-17.54,18.55-31.52-2.21-17.39-11.46-32.22-11.5-50.37-.04-32.6,14.98-60.13,27.65-89.02,4.68-11.23,9.02-25.67,1.36-36.59Z"/>
      <path class="st0" d="M1806.83,1356.27c23-10.88,46.27-26.45,61.02-47.55,15.57-21.68,24.36-47.63,21.72-74.5-1.7-19.48-11.04-38.45-28.46-48.28-17.69-10.03-40.31-11.19-60.05-8.52-7.71,1.12-16.77,2.44-23.39,6.78-6.66,4.8-8.21,12.86-4.68,20.13,5.11,9.8,15.14,17.04,20.79,26.68,3.95,7.59,2.25,17.23-4.57,22.57-28.07,20.29-70.24,14.91-90.84-13.36-15.33-21.57-8.75-50.88,7.9-69.66,15.84-17.66,39.57-24.63,61.84-30.24,23.74-6.04,47.55-.31,70.9-4.76,10.22-2.4,19.9-9.18,18.2-21.06-3.33-11.5-14.02-17.46-25.25-19.05-18.55-2.56-38.41,5.15-57.69,1.78-24.36-3.95-48.28-22.46-58.78-44.68-7.55-15.1-5.69-38.84,10.18-47.9,9.02-4.03,25.56-2.83,30.86,6.85,3.29,11.31,1.2,25.63,6.66,36.05,8.09,12.51,24.51,13.47,37.95,13.2,24.08-.77,52.7-5.77,71.4-22.15,16.73-14.98,18.66-37.98,15.64-58.93-2.67-16.34-9.25-35.43-22.26-46.39-11.46-9.45-25.71-9.68-39.84-8.44-49.56,5.03-99.28,2.71-148.72,6.31-16.42,1.39-35.12,4.14-47.7,15.76-11.23,10.38-12.39,25.52-11.27,39.88,2.36,24.74,12.78,49.79,18.43,74.23,14.29,58.31,18.78,122.12,1.05,180.16-7.2,24.74-22.07,48.32-21.3,74.61.31,14.95,7.12,28.61,19.51,37.13,16.57,11.58,37.37,12.7,56.8,14.75,36.71,3.21,79.57,3.6,113.95-11.42Z"/>
      <path class="st0" d="M1290.88,979.02c1.7-20.21-7.59-43.56-28.42-49.95-19.01-5.73-40.89,5.61-56.07,16.49-23.35,16.53-43.87,42.32-45.53,71.86-1.67,28.27,12.35,58.23,21.99,84.41,8.6,23.85,21.45,49.37,24.01,74.61.77,9.68-2.56,18.16-13.71,17.46-15.41-.46-23.66-17.89-31.17-29.04-27.1-40.97-53.86-82.43-83.44-121.7-16.03-20.44-34.07-43.37-59.09-52.89-18.86-7.4-41.82-4.69-55.99,10.57-11.69,12.97-12.97,31.29-11.11,47.86,3.25,24.74,15.68,48.83,26.21,71.21,32.29,62.96,36.94,140.13,17.58,207.73-6.2,24.32-22.42,45.03-21.26,69.5.66,17.35,9.37,33.84,26.6,39.53,26.14,7.74,55.87-1.59,79.96-12.24,16.53-7.59,32.56-16.46,38.53-34.89,6.62-20.75,2.17-45.81-4.41-66.17-11.89-37.25-37.71-65.24-49.17-101.68-5.58-17.97-7.63-38.6-.19-56.34,4.26-9.25,11.69-17.54,22.73-16.96,4.07,2.48,7.32,5.81,10.26,9.49,20.72,26.76,34.96,57.89,37.56,91.92,2.79,28.85-4.96,63.15,4.84,90.45,11.19,32.02,45.92,50.61,78.83,48.4,13.28-.89,28.96-4.92,36.75-16.73,8.05-12.43,7.43-30.51,5.69-44.64-2.79-28.07-14.64-52.5-19.71-80.31-13.67-67.64-1.59-137.88,19.44-202.7,7.55-24.63,26.17-40.73,28.3-65.28Z"/>
      <path class="st0" d="M1378.89,1395.96c48.87,4.1,100.05-13.63,140.24-40.77,32.76-22.19,61.41-52.54,77.17-89.13,19.44-44.61,24.66-95.91,19.01-143.92-6.2-51.11-26.45-101.41-63.77-137.69-27.96-27.57-64.47-44.57-103.07-50.57-25.56-3.95-53.55-5.23-77.44,6.19-46.12,21.45-78.18,73.03-74.85,124.06,2.32,41.7,32.45,69,31.83,112.21.62,41.24-26.41,82.63-35.7,121.85-4.45,19.44-2.17,39.46,9.29,56.07,17.27,26.48,46.62,39.15,77.29,41.7ZM1454.51,1027.57c22.46-10.38,52.08-1.12,68.92,15.91,43.33,47.08,54.4,117.24,31.05,176.45-10.15,25.36-26.64,55.68-52,68.38-9.91,4.84-26.76,9.18-36.28,1.97-8.25-10.38-.04-26.72,5.23-36.86,10.38-18.04,18.28-36.51,18.12-57.73.04-17.62-5.11-34.73-14.4-49.64-13.09-21.68-34.15-42.36-40.54-67.26-4.99-19.01.74-42.48,19.9-51.23Z"/>
      <path class="st0" d="M2685.31,1023.78c-30.05-36.63-79.49-50.96-125.45-45.81-23.46,2.94-47.66,12.35-60.05,33.76-10.61,18.08-9.14,39.96-7.78,60.09,2.13,24.55,2.83,48.48-3.29,72.6-12.85,53.36-46.42,97.5-60.52,151.94-7.74,27.92-9.64,62.92,3.76,89.37,19.13,33.38,67.3,49.14,101.91,31.63,26.37-13.2,40.66-46.27,29.31-74.03-8.83-20.17-36.28-25.86-47.43-45.38-9.8-17.04-8.67-40.81-5.27-59.51,4.38-21.41,14.13-46.23,32.53-59.36,15.91-11.54,35.31-17.23,54.79-12.35,11.46,3.06,23.35,9.68,26.52,22.03,2.79,12.58-2.56,25.52-6.7,37.25-19.01,50.65-28.42,105.44-27.34,159.49.46,26.29,8.21,51.46,27.07,70.35,16.84,17.54,42.86,20.68,65.75,16.84,23.04-4.53,45.96-18.82,52.39-42.63,6.23-24.66-5.5-45.84-19.55-65.09-17.08-22.69-33.34-42.48-35.12-72.25-4.45-56.49,26.52-118.72,31.71-174.43,3.29-33.84-5.3-68.15-27.22-94.52ZM2623.24,1112.26c-9.72,19.98-45.11,18.62-53.47-1.55-1.55-11.54,1.94-23.5.89-35.2-.85-11.58-6.89-23.12-6.43-34.58,1.59-10.92,12.62-16.34,22.57-17.31,18.2-1.28,34.81,11.46,39.38,28.89,5.38,18.7,6.43,42.13-2.94,59.75Z"/>
      <path class="st0" d="M3048.74,1157.75c14.95-22.23,38.06-33.03,48.17-56.73,7.94-18.9,7.98-44.33-6.54-60.17-12.12-13.05-30.09-14.71-46.81-12.2-28.11,4.57-57.07,18.62-74.81,41.39-13.75,17.42-18.28,38.1-19.36,59.86-1.47,43.87,5.42,87.89,3.72,131.73-.89,9.33-1.55,25.4-11.35,30.12-14.83,3.02-23.7-12-26.95-24.2-10.76-44.14-22.84-87.89-34.42-131.84-8.05-30.55-14.87-62.61-30.74-90.26-9.14-15.88-22.11-30.82-39.77-37.21-14.91-5.3-31.71-4.49-44.26,5.89-12.43,10.34-18.62,27.61-21.49,43.06-9.76,50.37,13.2,107.22,1.74,158.4-4.49,20.83-16.11,36.24-26.76,54.05-11.38,18.2-14.95,39.77-6.54,59.94,12.27,29.54,46.23,56.26,79.65,47.55,26.45-5.96,44.88-30.09,41.7-57.42-1.28-20.02-16.65-27.1-29.12-39.88-14.79-14.06-14.67-36.75-9.99-55.18,3.52-12.74,9.45-28.58,20.56-36.55,10.18-6.7,21.76-2.9,26.68,8.02,12.31,27.41,19.09,58.43,20.29,88.4,1.74,54.21-26.64,96.88-25.83,151.36.77,42.51,37.6,80.15,79.69,83.4,22.19.85,39.49-17.23,46.04-37.06,6.58-18.78.15-35.31-1.66-54.17-5.89-45.88,1.78-92.23,17-135.64,16.77-47.66,42.63-93.08,71.17-134.67Z"/>
      <path class="st0" d="M911.23,1448.31c27.34-25.25,43.95-58.16,53.32-93.82,26.48-99.2-6.66-212.23-81.62-282.19-32.64-29.81-76.24-52.7-121.66-44.41-36.05,6.89-61.26,32.1-81.16,61.33-32.1,48.4-50.1,106.87-56.38,164.29-4.88,48.05-1.47,102.11,21.41,145.59,29.7,56.34,94.13,90.45,156.93,90.41,40.04.5,79.76-13.82,109.15-41.2ZM771.84,1381.55c1.86-27.45,25.36-46.89,38.53-69.31,10.26-16.49,12.04-35.93,6.74-54.48-10.65-39.8-43.71-67.72-54.52-106.71-2.9-11.31-4.14-23.74,4.57-32.87,8.56-8.4,20.1-8.09,31.25-7.09,21.45,2.98,42.98,16.96,48.21,39.03,4.61,21.37-9.1,43.06-9.87,64.93-.74,35.51,28.19,68.84,34.54,104.43,4.92,25.98,2.83,57.58-12.43,80.07-13.86,21.03-43.52,30.78-66.21,18.28-13.55-7.12-22.19-20.68-20.79-36.28Z"/>
      <path class="st0" d="M601.93,1348.56c-8.48-43.13-7.59-89.83-5.42-133.62,1.39-26.45,3.25-51.46,13.24-76.32,7.74-19.94,21.99-41.55,24.12-62.92,1.28-18.82-12.24-33.57-30.12-37.21-29.23-5.42-61.37,6.97-81,28.96-16.73,18.82-21.18,45.96-18.08,70.28,4.92,41.47,25.63,77.09,38.8,115.15,3.37,8.94,3.06,17.85,2.28,27.18-8.71-.66-16.65.19-24.05-5.38-12.85-9.53-21.57-26.06-30.4-39.22-17.54-27.14-35.08-52.12-65.05-66.75-14.91-7.4-31.79-10.92-46.12-.08-17.58,14.09-26.14,40.19-28.81,61.84-4.3,29.93,4.88,60.6-.7,89.75-2.17,11.07-8.17,21.95-20.99,21.64-9.29-10.34-12.47-24.63-15.95-37.75-8.48-34.5-14.79-71.01-32.83-102.14-12.62-21.76-32.33-40.77-57.5-46.43-24.12-5-51.11-.81-71.71,13.09-9.53,6.43-16.92,15.72-20.41,26.76-2.98,13.24,4.26,25.32,13.67,34,17.15,15.33,39.84,23.97,58.74,38.18,24.59,18.08,44.14,44.88,62.84,68.84,33.88,44.49,63.54,88.79,77.25,143.88,8.79,29.89,10.57,67.61,31.48,91.65,21.76,26.52,65.98,27.37,89.21,2.4,12.74-13.24,17.04-31.36,14.4-49.33-6.85-55.29-36.09-103.73-57.54-154.18-12.43-29.62-27.53-56.84-27.37-89.91.31-13.82,1.74-33.22,12.43-43.37,9.33-8.32,21.57-4.99,30.67,1.78,15.22,11.65,26.37,29.5,35,46.39,18.93,38.76,26.41,83.48,32.6,125.76,5.54,36.4,12.51,76.59,31.6,108.61,8.67,14.91,23.66,25.05,41.16,25.36,25.17.89,53.59-14.17,63.62-37.98,8.83-21.68,2.05-46-6.62-66.56-13.09-30.4-26.1-59.59-32.45-92.35Z"/>
      <path class="st0" d="M3355.09,1253.39c-12.93-54.25-47.28-101.87-95.75-129.71-25.59-14.67-53.24-27.1-83.52-22.77-58.24,8.25-107.37,59.32-113.61,117.83-3.06,26.45,3.64,51.73,2.48,77.59-.74,24.43-9.1,47.55-22.65,67.72-18.12,28.11-43.06,58.2-52.54,90.45-10.96,38.76,3.1,84.22,34.93,109.31,25.67,20.91,60.56,29.27,93.12,29.66,49.56.15,99.2-16.65,139.66-45.03,39.26-27.8,66.87-73.1,83.75-117.44,20.83-57.19,29.78-117.86,14.13-177.61ZM3283.3,1392.51c-13.13,19.63-35.74,28.92-48.87,47.74-10.73,16.53-12.2,41.31-26.33,55.18-11.11,10.73-31.75,15.57-45.5,7.63-8.67-10.45-6.62-26.91-1.12-38.41,11.58-24.55,33.38-38.64,49.79-59.13,9.25-11.69,16.03-24.51,14.99-39.92-2.21-19.9-17-38.53-23.5-57.65-10.53-27.03-12.78-59.74,4.53-84.53,17.19-24.24,57.65-22.15,72.72,3.29,30.82,47.97,38.33,117.98,3.29,165.8Z"/>
    </g>
  </g>
</svg>