<?xml version="1.0" encoding="UTF-8"?>
<svg xmlns="http://www.w3.org/2000/svg" id="DeltaCenter_logo_coloured" width="230.847" height="56.516" viewBox="0 0 230.847 56.516">
  <path id="Path_805" data-name="Path 805" d="M116.447,63.224c-5.714,0-9.567-4.4-9.567-10.908S110.792,41.35,116.6,41.35a10.182,10.182,0,0,1,5.923,1.8l-.335,2.136a9.528,9.528,0,0,0-5.621-2.044c-4.641,0-7.515,3.669-7.515,9.014s2.9,9.04,7.481,9.04a9.864,9.864,0,0,0,6.015-2.2l.3,2.019a10.983,10.983,0,0,1-6.417,2.111" transform="translate(-17.339 -6.708)" fill="#173c6d"></path>
  <path id="Path_806" data-name="Path 806" d="M139.67,62.907V41.82h11v1.893h-8.9v7.213H148.8l.31,1.893h-7.339V61h9.2v1.9Z" transform="translate(-22.659 -6.784)" fill="#173c6d"></path>
  <path id="Path_807" data-name="Path 807" d="M181.831,62.907,169.516,45.154V62.907H167.53V41.82h1.986l11.947,17.2V41.82h1.986V62.907Z" transform="translate(-27.179 -6.784)" fill="#173c6d"></path>
  <path id="Path_808" data-name="Path 808" d="M208.832,43.713V62.907h-2.078V43.713H199.91V41.82h15.524l.3,1.893Z" transform="translate(-32.432 -6.784)" fill="#173c6d"></path>
  <path id="Path_809" data-name="Path 809" d="M231.93,62.907V41.82h11v1.893h-8.889v7.213h7.029l.3,1.893h-7.33V61h9.2v1.9Z" transform="translate(-37.626 -6.784)" fill="#173c6d"></path>
  <path id="Path_810" data-name="Path 810" d="M272.875,62.655l-2.136.461-6.845-9.534h-2.723V62.9H259.06V41.82h5.378c4.122,0,6.752,2.078,6.752,5.747,0,3.267-2.111,5.136-5.01,5.747l6.694,9.35Zm-8.52-18.975H261.18v8.093h2.815c3.117,0,5.069-1.407,5.069-4.1s-1.65-4-4.708-4" transform="translate(-42.028 -6.784)" fill="#173c6d"></path>
  <path id="Path_811" data-name="Path 811" d="M31.926,23.474,16.679,0,1.44,23.474l15.239-7.339Z" transform="translate(-0.234)" fill="#d2202e"></path>
  <path id="Path_812" data-name="Path 812" d="M0,30.023H32.9L16.445,23.07Z" transform="translate(0 -3.743)" fill="#d2202e"></path>
  <g id="Group_149" data-name="Group 149" transform="translate(16.445)">
    <path id="Path_813" data-name="Path 813" d="M19.63,16.135l15.247,7.339L19.63,0" transform="translate(-19.63)" fill="#8c2232"></path>
    <path id="Path_814" data-name="Path 814" d="M19.63,30.023H36.084L19.63,23.07" transform="translate(-19.63 -3.743)" fill="#8c2232"></path>
  </g>
  <path id="Path_815" data-name="Path 815" d="M41.261,26.5c0-.226-.109-.343-.394-.343H40.39v1.248h.159v-.545h.226l.377.545h.176l-.377-.545a.343.343,0,0,0,.318-.352m-.519.218h-.2v-.419h.276c.134,0,.276.05.276.209,0,.209-.184.218-.36.218" transform="translate(-6.553 -4.244)" fill="#8c2232"></path>
  <path id="Path_816" data-name="Path 816" d="M40.651,25.61a1.081,1.081,0,1,0,1.081,1.081,1.083,1.083,0,0,0-1.081-1.081m0,2a.926.926,0,1,1,.922-.922.919.919,0,0,1-.922.922" transform="translate(-6.419 -4.155)" fill="#8c2232"></path>
  <path id="Path_817" data-name="Path 817" d="M61.987,3.03h-7.4V23.966h7.4c7.6,0,12.139-3.938,12.139-10.472S69.586,3.03,61.987,3.03m0,17.3H59.273V6.666h2.714c4.934,0,7.4,2.43,7.4,6.828s-2.463,6.836-7.4,6.836" transform="translate(-8.856 -0.492)" fill="#173c6d"></path>
  <path id="Path_818" data-name="Path 818" d="M95.963,14.893h8.889V11.257H95.963V6.666h10.053V3.03H91.28V23.966h15.063V20.33H95.963Z" transform="translate(-14.808 -0.492)" fill="#173c6d"></path>
  <path id="Path_819" data-name="Path 819" d="M129.392,3.03H124.7V23.966h13.706V20.33h-9.014Z" transform="translate(-20.23 -0.492)" fill="#173c6d"></path>
  <path id="Path_820" data-name="Path 820" d="M148.78,6.666h7.037v17.3h4.708V6.666h7.046V3.03H148.78Z" transform="translate(-24.137 -0.492)" fill="#173c6d"></path>
  <path id="Path_821" data-name="Path 821" d="M190.76,2.92h-4.725L177.28,23.948h4.574L183.9,18.7h8.52l2.053,5.244h4.9ZM185.23,15.2l2.932-7.431,2.924,7.431Z" transform="translate(-28.76 -0.474)" fill="#173c6d"></path>
</svg>
